<svg version="1.1" xmlns="http://www.w3.org/2000/svg" viewBox="-281.7 -826.2 2806.4 1141.4"><desc>Created with Snap</desc><defs></defs><g><g><g transform="matrix(0.5,0,0,-0.5,0,0)"><path d="M575 274L575 518Q575 543 559 556Q543 569 518 569Q483 569 451 553Q420 537 396 506Q372 475 358 429Q344 384 344 324Q344 266 352 228Q361 190 375 167Q390 145 409 136Q428 127 449 127Q475 127 498 140Q521 154 538 175Q555 196 565 222Q575 248 575 274ZM416 956Q382 956 353 948Q324 940 303 928Q282 916 270 901Q258 887 258 874Q258 859 273 852Q289 846 308 837Q327 829 342 813Q358 798 358 766Q358 745 349 727Q341 710 326 696Q312 683 292 675Q273 668 252 668Q196 668 161 706Q127 744 127 807Q127 868 159 911Q191 955 242 983Q294 1011 359 1024Q424 1038 489 1038Q567 1038 638 1021Q709 1004 763 967Q818 930 850 873Q883 816 883 735L883 170Q883 161 884 150Q885 139 889 130Q893 121 901 115Q909 109 924 109Q942 109 957 122Q973 136 985 150L1010 129Q995 108 974 83Q953 58 923 36Q893 14 853 -1Q813 -16 762 -16Q699 -16 650 21Q601 59 586 137Q554 94 519 65Q485 36 449 18Q413 0 376 -8Q340 -16 303 -16Q255 -16 210 -1Q165 14 129 46Q94 79 72 131Q51 183 51 258Q51 349 87 407Q123 465 181 504Q240 544 314 572Q389 600 467 631Q525 654 551 699Q578 745 578 793Q578 867 534 911Q491 956 416 956ZM1999 758L1999 88Q1999 75 1995 57Q1991 39 1975 23Q1960 7 1929 -5Q1898 -16 1845 -16Q1792 -16 1761 -4Q1731 9 1715 26Q1700 43 1696 61Q1692 79 1692 90L1692 797Q1692 811 1688 825Q1684 840 1676 852Q1668 864 1656 871Q1644 879 1628 879Q1601 879 1575 863Q1549 848 1526 828Q1504 808 1487 788Q1471 768 1464 758L1464 88Q1464 75 1460 57Q1456 39 1440 23Q1425 7 1394 -5Q1364 -16 1311 -16Q1258 -16 1227 -4Q1197 9 1181 26Q1165 43 1161 61Q1157 79 1157 90L1157 862Q1157 891 1143 912Q1130 934 1098 934Q1081 934 1069 928Q1057 922 1043 911L1022 936Q1045 955 1073 973Q1102 992 1135 1006Q1168 1020 1206 1029Q1244 1038 1286 1038Q1351 1038 1387 1016Q1423 995 1440 965Q1457 935 1460 902Q1464 870 1464 848Q1511 901 1565 943Q1587 961 1613 978Q1640 995 1668 1008Q1696 1022 1726 1030Q1756 1038 1786 1038Q1844 1038 1885 1017Q1926 996 1951 966Q1976 937 1987 904Q1999 872 1999 848Q2047 901 2100 943Q2122 961 2148 978Q2174 995 2202 1008Q2231 1022 2260 1030Q2290 1038 2320 1038Q2378 1038 2419 1016Q2460 995 2485 960Q2510 925 2521 881Q2533 837 2533 793L2533 174Q2533 165 2534 154Q2535 144 2539 134Q2543 125 2551 119Q2560 113 2574 113Q2593 113 2608 126Q2623 140 2636 154L2660 133Q2646 112 2623 86Q2600 61 2568 38Q2537 15 2495 -1Q2454 -16 2402 -16Q2358 -16 2325 -5Q2293 7 2270 26Q2248 46 2237 72Q2226 99 2226 129L2226 797Q2226 811 2222 825Q2218 840 2210 852Q2203 864 2191 871Q2179 879 2163 879Q2136 879 2109 863Q2083 848 2060 828Q2038 808 2022 788Q2006 768 1999 758ZM2732 512Q2732 643 2770 741Q2808 840 2871 906Q2935 972 3019 1005Q3103 1038 3195 1038Q3287 1038 3371 1007Q3455 977 3518 914Q3582 851 3620 754Q3658 658 3658 526Q3658 395 3620 294Q3582 193 3518 124Q3455 55 3371 19Q3287 -16 3195 -16Q3103 -16 3019 17Q2935 51 2871 117Q2808 183 2770 282Q2732 381 2732 512ZM3347 522Q3347 602 3341 676Q3336 751 3320 809Q3304 867 3274 901Q3244 936 3195 936Q3146 936 3116 899Q3086 863 3070 803Q3054 744 3049 668Q3044 592 3044 512Q3044 432 3049 355Q3054 279 3070 219Q3086 159 3116 122Q3146 86 3195 86Q3244 86 3274 124Q3304 162 3320 224Q3336 286 3341 364Q3347 442 3347 522ZM4166 958Q4143 958 4122 952Q4102 946 4086 932Q4070 919 4061 898Q4052 878 4052 850Q4052 811 4080 772Q4109 734 4151 692Q4194 651 4243 606Q4293 562 4335 512Q4378 463 4406 407Q4435 351 4435 287Q4435 215 4410 159Q4386 103 4340 64Q4295 25 4230 4Q4166 -16 4087 -16Q4018 -16 3962 3Q3906 23 3862 51Q3819 80 3788 112Q3757 144 3740 170L3775 195Q3788 180 3808 162Q3828 145 3852 130Q3877 115 3905 105Q3933 96 3962 96Q4034 96 4080 130Q4126 165 4126 233Q4126 271 4101 311Q4076 352 4038 395Q4000 438 3956 484Q3912 530 3874 579Q3836 628 3811 680Q3786 732 3786 788Q3786 851 3811 898Q3837 945 3879 976Q3922 1007 3976 1022Q4031 1038 4089 1038Q4156 1038 4211 1026Q4266 1014 4305 989Q4345 965 4366 928Q4388 891 4388 842Q4388 804 4363 776Q4338 748 4293 748Q4250 748 4227 766Q4205 785 4205 817Q4205 838 4215 850Q4226 862 4239 869Q4252 877 4262 882Q4273 888 4273 897Q4273 925 4243 941Q4213 958 4166 958Z" fill="#1a283f" style=""></path></g></g></g></svg>